<svg width="44" height="44" viewBox="0 0 44 44" fill="none" xmlns="http://www.w3.org/2000/svg">
<path d="M-0.180634 0.166309C-1.40286 0.587288 1.43051e-05 1.13829 1.43051e-05 22.2173C1.43051e-05 41.5523 -0.480619 43.1159 0.0388253 43.567C0.527714 44.018 1.95557 43.567 7.05835 43.567H12.9861L17.875 38.7558L22.7639 33.9446L27.6528 38.7558L32.5417 43.567H37.7972C42.1667 43.567 43.595 43.9579 43.9922 43.567C44.42 43.146 44 40.3795 44 22.3677C44 11.2418 43.9083 0.720577 43.8167 0.449947C42.0325 0.449947 42.2584 0.506824 41.4639 0.897732C41.0972 1.07815 36.7278 5.19773 31.7778 10.039L22.7639 18.8795L12.8028 9.91871C7.33335 4.98724 2.59724 0.867661 2.26113 0.777451C1.95557 0.687241 0.0638101 0.0760994 -0.180634 0.166309ZM18.1195 19.5712C21.0528 22.2474 22.2139 23.1194 22.8556 23.1194C23.4972 23.1194 25.2695 21.5558 31.9917 14.9404L40.3333 6.7313V9.31731V11.9033L31.625 20.383C23.7722 28.0208 22.8556 28.8327 22.3667 28.4719C22.0611 28.2614 17.7222 24.3823 12.7417 19.8418L3.66668 11.6026V9.07675V6.52081L8.95279 11.3019C11.825 13.918 15.9806 17.6467 18.1195 19.5712ZM12.1306 24.1719L20.1056 31.3886L15.7972 35.6886L11.4583 39.9586H7.57779H3.66668V28.3516C3.66668 21.9768 3.7889 16.8047 3.91113 16.8649C4.0639 16.8949 7.76113 20.2026 12.1306 24.1719ZM40.3333 28.532V39.9586H37.2167H34.0695L29.7917 35.7488L25.4833 31.5089L32.8472 24.3222C36.8806 20.353 40.2111 17.1054 40.2722 17.1054C40.3028 17.1054 40.3333 22.2474 40.3333 28.532Z" fill="white"/>
</svg>
