<svg width="45" height="44" viewBox="0 0 45 44" fill="none" xmlns="http://www.w3.org/2000/svg">
<g clip-path="url(#clip0_677_394)">
<path d="M0.568389 0.166309C-0.653833 0.587288 0.749038 1.13829 0.749038 22.2173C0.749038 41.5523 0.268404 43.1159 0.787849 43.567C1.27674 44.018 2.70459 43.567 7.80737 43.567H13.7351L18.624 38.7558L23.5129 33.9446L28.4018 38.7558L33.2907 43.567H38.5463C42.9157 43.567 44.344 43.9579 44.7413 43.567C45.169 43.146 44.749 40.3795 44.749 22.3677C44.749 11.2418 44.6574 0.720577 44.5657 0.449947C42.7815 0.449947 43.0074 0.506824 42.2129 0.897732C41.8463 1.07815 37.4768 5.19773 32.5268 10.039L23.5129 18.8795L13.5518 9.91871C8.08237 4.98724 3.34626 0.867661 3.01015 0.777451C2.70459 0.687241 0.812833 0.0760994 0.568389 0.166309ZM18.8685 19.5712C21.8018 22.2474 22.9629 23.1194 23.6046 23.1194C24.2463 23.1194 26.0185 21.5558 32.7407 14.9404L41.0824 6.7313V9.31731V11.9033L32.374 20.383C24.5213 28.0208 23.6046 28.8327 23.1157 28.4719C22.8101 28.2614 18.4713 24.3823 13.4907 19.8418L4.4157 11.6026V9.07675V6.52081L9.70182 11.3019C12.574 13.918 16.7296 17.6467 18.8685 19.5712ZM12.8796 24.1719L20.8546 31.3886L16.5463 35.6886L12.2074 39.9586H8.32681H4.4157V28.3516C4.4157 21.9768 4.53793 16.8047 4.66015 16.8649C4.81293 16.8949 8.51015 20.2026 12.8796 24.1719ZM41.0824 28.532V39.9586H37.9657H34.8185L30.5407 35.7488L26.2324 31.5089L33.5963 24.3222C37.6296 20.353 40.9601 17.1054 41.0213 17.1054C41.0518 17.1054 41.0824 22.2474 41.0824 28.532Z" fill="url(#paint0_linear_677_394)"/>
</g>
<defs>
<linearGradient id="paint0_linear_677_394" x1="0.068352" y1="42.4637" x2="41.8916" y2="-1.02934" gradientUnits="userSpaceOnUse">
<stop stop-color="#95E1FF"/>
<stop offset="0.463542" stop-color="#E7B0FF"/>
<stop offset="1" stop-color="#FFD27B"/>
</linearGradient>
<clipPath id="clip0_677_394">
<rect width="44" height="43" fill="white" transform="translate(0.749023 0.566956)"/>
</clipPath>
</defs>
</svg>
