<svg width="1500" height="856" viewBox="0 0 1500 856" fill="none" xmlns="http://www.w3.org/2000/svg">
<path d="M1393.36 326.974C1406.35 330.03 1413.23 320.863 1410.94 303.292L1374.27 85.5634C1371.21 64.9366 1355.17 41.254 1339.89 35.1424C1301.53 19.1188 1261.18 8.32661 1219.95 3.05602C1213.07 2.29206 1209.25 8.40364 1210.01 16.8072L1217.65 74.1041C1219.18 84.7995 1212.31 92.4392 1203.9 90.9112C1199.56 89.5651 1195.72 86.9578 1192.86 83.4209C1190 79.8839 1188.26 75.5768 1187.86 71.048C1185.57 48.1293 1184.04 37.4342 1180.98 14.5154C1180.85 10.9629 1179.47 7.56971 1177.1 4.92022C1174.73 2.27073 1171.51 0.530604 1168 0C872.344 8.40354 627.114 211.616 332.226 220.02C329.051 219.941 325.947 220.963 323.44 222.912C320.934 224.862 319.179 227.619 318.475 230.716C315.419 249.051 314.655 258.218 311.599 275.789C310.862 279.631 308.748 283.071 305.652 285.462C302.557 287.854 298.695 289.032 294.792 288.776C292.915 288.684 291.077 288.208 289.391 287.377C287.706 286.547 286.208 285.38 284.991 283.948C283.774 282.516 282.863 280.85 282.315 279.052C281.767 277.255 281.593 275.364 281.804 273.497L289.444 229.188C289.776 227.726 289.796 226.211 289.505 224.741C289.213 223.27 288.616 221.878 287.752 220.653C286.887 219.429 285.775 218.399 284.487 217.632C283.2 216.865 281.765 216.377 280.277 216.2C238.739 211.647 198.081 201.096 159.571 184.878C144.292 178.002 129.013 182.586 125.193 197.101C112.97 245.231 100.746 293.36 89.2869 341.49C86.2311 353.713 93.1066 368.992 106.094 378.924C139.708 404.898 176.378 449.972 165.683 495.809C154.987 541.647 108.386 556.162 67.1322 541.647C51.853 536.299 39.6297 539.355 36.5739 550.814C24.3505 599.708 12.1271 647.837 0.667711 695.966C-3.15208 709.718 9.83531 731.872 28.9343 744.096C75.0004 772.418 124.23 795.238 175.614 812.088C183.254 814.38 190.893 811.324 191.657 805.212L199.297 761.667C199.643 759.754 200.391 757.936 201.491 756.334C202.591 754.731 204.018 753.38 205.678 752.37C207.339 751.359 209.195 750.712 211.123 750.471C213.052 750.23 215.01 750.4 216.868 750.971C219.176 751.069 221.442 751.622 223.537 752.597C225.631 753.572 227.513 754.95 229.074 756.653C230.635 758.356 231.845 760.35 232.635 762.521C233.424 764.693 233.778 766.998 233.675 769.306C230.619 787.641 229.855 796.045 226.799 814.38C226.756 817.864 227.966 821.246 230.211 823.911C232.455 826.576 235.583 828.345 239.023 828.895C585.096 890.012 914.362 703.606 1260.44 764.723C1262.07 765.412 1263.87 765.613 1265.61 765.301C1267.36 764.989 1268.98 764.178 1270.27 762.965C1271.56 761.752 1272.48 760.19 1272.9 758.468C1273.33 756.746 1273.24 754.938 1272.66 753.263C1270.37 731.109 1268.84 719.649 1265.78 696.73C1265.02 687.563 1270.37 680.687 1278.77 682.215C1284.25 683.401 1289.23 686.232 1293.05 690.328C1296.87 694.424 1299.35 699.589 1300.16 705.134L1307.8 762.43C1308.66 766.704 1310.58 770.694 1313.38 774.032C1316.18 777.37 1319.78 779.948 1323.84 781.529C1375.1 798.701 1424.29 821.505 1470.52 849.522C1489.62 861.745 1502.61 855.633 1499.55 835.007L1462.88 617.278C1458.68 597.289 1447.93 579.274 1432.33 566.094C1384.96 527.132 1342.94 471.362 1333.78 410.246C1327.66 372.048 1343.71 315.515 1393.36 326.974ZM248.954 670.755C248.53 672.786 247.675 674.702 246.448 676.374C245.22 678.046 243.648 679.436 241.839 680.45C240.029 681.463 238.023 682.077 235.955 682.249C233.888 682.422 231.808 682.15 229.855 681.451C225.669 680.702 221.922 678.394 219.37 674.991C216.818 671.589 215.651 667.345 216.104 663.116L232.147 566.094C232.675 564.123 233.593 562.277 234.845 560.667C236.098 559.056 237.66 557.713 239.44 556.717C241.22 555.72 243.182 555.09 245.21 554.863C247.237 554.637 249.29 554.818 251.246 555.398C255.228 555.966 258.851 558.008 261.398 561.121C263.945 564.234 265.229 568.19 264.997 572.205L248.954 670.755ZM280.277 473.654C279.915 475.581 279.168 477.415 278.078 479.044C276.989 480.674 275.581 482.067 273.939 483.138C272.297 484.208 270.455 484.936 268.525 485.275C266.594 485.615 264.614 485.56 262.705 485.114C260.695 484.923 258.743 484.335 256.961 483.385C255.179 482.435 253.603 481.141 252.324 479.578C251.046 478.016 250.089 476.215 249.511 474.28C248.933 472.345 248.743 470.315 248.954 468.306C254.302 436.22 259.65 403.37 265.761 371.284C266.505 367.351 268.763 363.867 272.049 361.581C275.335 359.295 279.386 358.39 283.332 359.06C285.184 359.14 286.998 359.616 288.651 360.454C290.304 361.293 291.758 362.476 292.916 363.923C294.074 365.37 294.908 367.049 295.364 368.845C295.819 370.642 295.885 372.516 295.556 374.34C290.972 407.19 285.624 440.804 280.277 473.654ZM740.18 306.348C743.999 281.137 746.291 268.149 750.111 242.939C753.167 265.857 755.459 278.081 759.278 301C793.657 293.36 811.228 288.776 846.37 282.665L759.278 320.863C755.459 346.837 753.931 359.06 750.111 384.271C745.527 361.352 743.999 349.893 740.18 326.974L653.088 345.309L740.18 306.348ZM1085.49 244.467L1119.87 606.583C1077.71 606.719 1035.61 609.525 993.814 614.987L977.771 359.06C935.753 437.748 892.971 515.672 847.134 592.068C836.617 609.943 822.605 625.515 805.935 637.854C789.265 650.192 770.279 659.044 750.111 663.88C731.805 668.473 712.648 668.473 694.342 663.88C678.03 660.113 663.324 651.29 652.324 638.67C606.996 586.72 563.451 534.007 521.688 480.53L505.644 712.773C463.846 718.234 421.744 721.041 379.591 721.177L413.969 412.538L466.682 405.662L421.609 340.726C458.279 335.378 494.185 328.502 530.091 320.099C547.662 316.279 562.941 320.099 572.109 331.558C629.406 403.37 688.994 472.89 750.111 542.411C812.756 436.475 871.835 327.993 927.349 216.964C931.281 208.257 937.085 200.524 944.347 194.318C951.61 188.111 960.153 183.584 969.367 181.058C1006.04 172.655 1041.18 165.779 1077.85 160.431C1063.33 190.99 1048.06 220.784 1033.54 251.343C1050.69 247.927 1068.04 245.63 1085.49 244.467ZM1284.12 579.08C1284.88 589.012 1278.77 595.124 1269.6 592.832C1264.62 591.629 1260.13 588.938 1256.72 585.117C1253.3 581.295 1251.14 576.525 1250.5 571.441L1234.46 446.152C1233.7 436.984 1239.81 429.345 1248.98 431.637C1253.77 433.061 1258.04 435.836 1261.3 439.63C1264.55 443.424 1266.64 448.076 1267.31 453.027C1272.66 495.045 1278.01 537.063 1284.12 579.08ZM1250.5 326.21C1252.03 336.906 1245.92 343.017 1237.52 341.49C1232.75 340.55 1228.4 338.119 1225.11 334.549C1221.81 330.979 1219.74 326.454 1219.18 321.627C1213.83 279.609 1208.49 238.355 1203.9 196.337C1203.43 194.397 1203.42 192.374 1203.85 190.426C1204.29 188.478 1205.17 186.657 1206.43 185.105C1207.69 183.553 1209.28 182.311 1211.1 181.477C1212.91 180.643 1214.89 180.238 1216.89 180.294C1221.52 181.376 1225.69 183.868 1228.84 187.426C1231.99 190.985 1233.95 195.434 1234.46 200.157L1250.5 326.21Z" fill="url(#paint0_linear_14_3)"/>
<defs>
<linearGradient id="paint0_linear_14_3" x1="-1.11759e-05" y1="427.891" x2="1500" y2="427.891" gradientUnits="userSpaceOnUse">
<stop stop-color="#95E1FF"/>
<stop offset="0.503091" stop-color="#E7B0FF"/>
<stop offset="1" stop-color="#FFCF72"/>
</linearGradient>
</defs>
</svg>
