<svg width="371" fill="black" height="212" viewBox="0 0 371 212" fill="none" xmlns="http://www.w3.org/2000/svg">
<path d="M344.625 80.8716C347.838 81.6274 349.538 79.36 348.971 75.0141L339.902 21.1627C339.146 16.061 335.178 10.2035 331.399 8.69188C321.911 4.72873 311.933 2.05945 301.733 0.755856C300.033 0.566903 299.088 2.0785 299.277 4.15698L301.166 18.3284C301.544 20.9737 299.844 22.8633 297.765 22.4854C296.691 22.1524 295.74 21.5076 295.034 20.6328C294.327 19.758 293.897 18.6927 293.797 17.5726C293.23 11.904 292.852 9.25871 292.097 3.59014C292.063 2.71148 291.723 1.87224 291.137 1.21693C290.55 0.561628 289.754 0.131236 288.884 0C215.76 2.07848 155.106 52.3398 82.1705 54.4183C81.3853 54.3987 80.6176 54.6514 79.9976 55.1336C79.3776 55.6158 78.9437 56.2978 78.7694 57.0636C78.0136 61.5985 77.8246 63.866 77.0688 68.2119C76.8866 69.162 76.3636 70.0128 75.598 70.6044C74.8325 71.1959 73.8772 71.4874 72.9118 71.424C72.4476 71.4011 71.993 71.2834 71.5761 71.078C71.1592 70.8726 70.7888 70.5839 70.4878 70.2298C70.1868 69.8756 69.9616 69.4635 69.826 69.0189C69.6905 68.5744 69.6474 68.1068 69.6996 67.6449L71.5891 56.6857C71.6712 56.3242 71.6763 55.9495 71.6042 55.5858C71.5321 55.2222 71.3844 54.8778 71.1706 54.5749C70.9568 54.272 70.6817 54.0174 70.3632 53.8277C70.0447 53.638 69.6899 53.5173 69.3217 53.4735C59.0482 52.3473 48.9921 49.7378 39.4672 45.7265C35.6882 44.0259 31.9091 45.1596 30.9644 48.7497C27.9411 60.6537 24.9179 72.5577 22.0836 84.4617C21.3278 87.485 23.0284 91.2641 26.2406 93.7205C34.5545 100.145 43.6242 111.293 40.9789 122.63C38.3335 133.967 26.8075 137.557 16.604 133.967C12.825 132.645 9.80174 133.4 9.04593 136.235C6.0227 148.328 2.99943 160.232 0.165147 172.136C-0.779615 175.537 2.4326 181.016 7.15641 184.04C18.5501 191.045 30.7262 196.689 43.4352 200.856C45.3248 201.423 47.2143 200.668 47.4033 199.156L49.2928 188.386C49.3784 187.913 49.5633 187.463 49.8354 187.067C50.1075 186.67 50.4605 186.336 50.8711 186.086C51.2818 185.836 51.7408 185.676 52.2178 185.616C52.6949 185.557 53.1791 185.599 53.6387 185.74C54.2095 185.764 54.77 185.901 55.2881 186.142C55.8061 186.383 56.2715 186.724 56.6576 187.146C57.0438 187.567 57.343 188.06 57.5383 188.597C57.7336 189.134 57.821 189.704 57.7956 190.275C57.0398 194.81 56.8509 196.888 56.0951 201.423C56.0843 202.285 56.3837 203.122 56.9388 203.781C57.4938 204.44 58.2674 204.877 59.1183 205.013C144.714 220.13 226.152 174.025 311.748 189.141C312.152 189.312 312.597 189.362 313.028 189.285C313.46 189.207 313.86 189.007 314.18 188.707C314.5 188.407 314.726 188.02 314.831 187.594C314.936 187.169 314.915 186.721 314.771 186.307C314.204 180.828 313.826 177.993 313.07 172.325C312.881 170.057 314.204 168.357 316.283 168.734C317.637 169.028 318.869 169.728 319.815 170.741C320.76 171.754 321.374 173.032 321.573 174.403L323.463 188.574C323.675 189.632 324.149 190.618 324.843 191.444C325.536 192.269 326.426 192.907 327.431 193.298C340.108 197.545 352.276 203.186 363.71 210.115C368.433 213.138 371.646 211.627 370.89 206.525L361.82 152.674C360.781 147.729 358.121 143.274 354.262 140.014C342.547 130.377 332.155 116.584 329.887 101.467C328.375 92.0198 332.343 78.0373 344.625 80.8716ZM61.5747 165.9C61.4697 166.402 61.2583 166.876 60.9547 167.29C60.6511 167.703 60.2624 168.047 59.8147 168.298C59.3671 168.549 58.8709 168.7 58.3596 168.743C57.8484 168.786 57.3339 168.718 56.8509 168.546C55.8154 168.36 54.8886 167.789 54.2574 166.948C53.6263 166.106 53.3377 165.057 53.4498 164.011L57.4177 140.014C57.5483 139.526 57.7752 139.07 58.085 138.672C58.3949 138.273 58.7813 137.941 59.2215 137.695C59.6618 137.448 60.147 137.292 60.6485 137.236C61.1501 137.18 61.6577 137.225 62.1415 137.368C63.1263 137.509 64.0225 138.014 64.6524 138.784C65.2823 139.554 65.6 140.532 65.5427 141.525L61.5747 165.9ZM69.3217 117.15C69.2324 117.627 69.0474 118.081 68.778 118.484C68.5086 118.887 68.1604 119.231 67.7543 119.496C67.3482 119.761 66.8926 119.941 66.4151 120.025C65.9376 120.109 65.4479 120.095 64.9758 119.985C64.4786 119.938 63.9957 119.792 63.555 119.557C63.1143 119.322 62.7245 119.002 62.4082 118.616C62.0919 118.229 61.8555 117.784 61.7124 117.305C61.5693 116.827 61.5225 116.325 61.5747 115.828C62.8973 107.892 64.22 99.7669 65.7317 91.8309C65.9157 90.8582 66.474 89.9964 67.2867 89.4311C68.0994 88.8657 69.1015 88.6419 70.0775 88.8076C70.5356 88.8273 70.9841 88.9449 71.3929 89.1523C71.8017 89.3598 72.1614 89.6523 72.4478 90.0103C72.7342 90.3683 72.9407 90.7834 73.0533 91.2278C73.1659 91.6722 73.1821 92.1355 73.1008 92.5867C71.9671 100.712 70.6444 109.026 69.3217 117.15ZM183.071 75.77C184.016 69.5346 184.583 66.3223 185.527 60.0868C186.283 65.7554 186.85 68.7788 187.795 74.4473C196.298 72.5578 200.644 71.424 209.335 69.9124L187.795 79.36C186.85 85.7844 186.472 88.8076 185.527 95.043C184.394 89.3745 184.016 86.5402 183.071 80.8716L161.53 85.4065L183.071 75.77ZM268.478 60.4648L276.98 150.028C266.555 150.062 256.141 150.756 245.803 152.107L241.835 88.8076C231.443 108.27 220.862 127.543 209.524 146.438C206.923 150.859 203.458 154.711 199.335 157.762C195.212 160.814 190.516 163.004 185.527 164.2C181 165.336 176.262 165.336 171.734 164.2C167.699 163.268 164.062 161.086 161.342 157.964C150.13 145.116 139.36 132.078 129.031 118.851L125.063 176.293C114.725 177.643 104.311 178.338 93.8856 178.371L102.388 102.034L115.426 100.334L104.278 84.2728C113.348 82.9502 122.228 81.2496 131.109 79.1711C135.455 78.2263 139.234 79.1711 141.502 82.0054C155.673 99.7669 170.411 116.962 185.527 134.156C201.022 107.955 215.634 81.1236 229.364 53.6625C230.337 51.5089 231.772 49.5964 233.569 48.0613C235.365 46.5262 237.478 45.4064 239.757 44.7817C248.827 42.7033 257.518 41.0027 266.588 39.68C262.998 47.2381 259.219 54.6073 255.629 62.1654C259.87 61.3206 264.162 60.7525 268.478 60.4648ZM317.605 143.226C317.794 145.682 316.283 147.194 314.015 146.627C312.783 146.33 311.672 145.664 310.828 144.719C309.984 143.774 309.448 142.594 309.291 141.336L305.323 110.348C305.134 108.081 306.646 106.191 308.913 106.758C310.098 107.11 311.156 107.797 311.96 108.735C312.765 109.674 313.281 110.824 313.448 112.049C314.771 122.441 316.094 132.834 317.605 143.226ZM309.291 80.6827C309.669 83.328 308.158 84.8396 306.079 84.4617C304.9 84.2293 303.825 83.6281 303.01 82.7451C302.195 81.8621 301.682 80.7429 301.544 79.549C300.222 69.1566 298.899 58.9532 297.765 48.5608C297.649 48.0808 297.645 47.5805 297.753 47.0987C297.861 46.6168 298.079 46.1664 298.39 45.7826C298.701 45.3987 299.096 45.0917 299.545 44.8853C299.993 44.679 300.484 44.5789 300.977 44.5928C302.122 44.8603 303.155 45.4766 303.933 46.3568C304.712 47.2369 305.197 48.3372 305.323 49.5056L309.291 80.6827Z" fill="white"/>
</svg>
