<svg xmlns="http://www.w3.org/2000/svg" width="600" height="600" fill="none" viewBox="0 0 600 600"><path stroke="url(#paint0_linear_2239_2013)" stroke-linecap="round" stroke-linejoin="round" stroke-width="50" d="M375 125.003V175.003M375 275.003V325.003M375 425.003V475.003M125 125.003C111.739 125.003 99.0215 130.271 89.6447 139.648C80.2678 149.024 75 161.742 75 175.003V250.003C88.2608 250.003 100.979 255.271 110.355 264.648C119.732 274.024 125 286.742 125 300.003C125 313.264 119.732 325.981 110.355 335.358C100.979 344.735 88.2608 350.003 75 350.003V425.003C75 438.264 80.2678 450.981 89.6447 460.358C99.0215 469.735 111.739 475.003 125 475.003H475C488.261 475.003 500.978 469.735 510.355 460.358C519.732 450.981 525 438.264 525 425.003V350.003C511.739 350.003 499.022 344.735 489.645 335.358C480.268 325.981 475 313.264 475 300.003C475 286.742 480.268 274.024 489.645 264.648C499.022 255.271 511.739 250.003 525 250.003V175.003C525 161.742 519.732 149.024 510.355 139.648C500.978 130.271 488.261 125.003 475 125.003H125Z"/><defs><linearGradient id="paint0_linear_2239_2013" x1="75" x2="575.753" y1="300.003" y2="300.003" gradientUnits="userSpaceOnUse"><stop stop-color="#95E1FF"/><stop offset=".464" stop-color="#E7B0FF"/><stop offset="1" stop-color="#FFD27B"/></linearGradient></defs></svg>