<svg xmlns="http://www.w3.org/2000/svg" width="2000" height="2000" preserveAspectRatio="xMidYMid meet" version="1.0" viewBox="0 0 1500 1500"><metadata>Created by potrace 1.14, written by Peter Selinger 2001-2017</metadata><g fill="#000" stroke="none"><path d="M11445 11770 c-23 -3 -62 -6 -88 -5 -26 0 -47 -2 -47 -5 0 -3 -19 -5 -43 -6 -23 -1 -71 -4 -107 -8 -36 -5 -78 -9 -95 -11 -16 -1 -52 -6 -80 -10 -27 -3 -63 -8 -80 -10 -16 -3 -43 -6 -60 -9 -16 -3 -48 -7 -70 -11 -22 -3 -62 -10 -90 -15 -27 -5 -66 -12 -85 -15 -19 -3 -48 -8 -63 -11 -16 -3 -39 -8 -53 -10 -13 -2 -35 -6 -48 -8 -46 -8 -312 -68 -411 -93 -55 -14 -107 -26 -115 -27 -9 -1 -20 -5 -25 -8 -6 -3 -26 -9 -45 -13 -19 -4 -54 -13 -77 -21 -24 -7 -56 -16 -71 -19 -16 -2 -47 -11 -70 -19 -23 -8 -42 -13 -42 -10 0 2 -9 0 -21 -6 -11 -6 -30 -14 -42 -16 -12 -3 -26 -6 -32 -7 -5 -2 -16 -6 -22 -10 -7 -5 -13 -6 -13 -3 0 3 -12 1 -27 -5 -33 -13 -241 -79 -263 -84 -8 -2 -15 -4 -15 -4 0 -1 -375 -131 -390 -135 -5 -2 -18 -6 -27 -9 -10 -4 -26 -10 -35 -14 -10 -3 -22 -7 -28 -9 -25 -7 -133 -47 -162 -60 -17 -8 -33 -14 -36 -14 -3 0 -18 -5 -34 -12 -15 -6 -32 -12 -38 -13 -11 -3 -196 -72 -235 -88 -14 -6 -27 -11 -30 -12 -3 -1 -18 -7 -35 -14 -16 -7 -34 -14 -40 -15 -5 -2 -23 -8 -38 -14 -15 -7 -39 -15 -52 -18 -14 -3 -25 -11 -25 -17 0 -6 -3 -8 -6 -5 -5 5 -29 -3 -139 -47 -11 -4 -24 -9 -30 -11 -5 -1 -50 -19 -99 -38 -49 -20 -95 -36 -103 -36 -7 0 -13 -4 -13 -10 0 -5 -6 -10 -14 -10 -7 0 -53 -16 -102 -36 -49 -20 -93 -37 -99 -38 -5 -1 -26 -9 -45 -18 -19 -8 -53 -21 -75 -28 -22 -7 -44 -16 -50 -21 -5 -5 -14 -9 -21 -9 -6 0 -33 -10 -60 -22 -27 -12 -52 -22 -56 -23 -3 0 -10 -3 -14 -7 -4 -5 -17 -8 -29 -8 -11 0 -25 -4 -30 -8 -6 -5 -39 -19 -75 -32 -36 -13 -69 -26 -75 -30 -5 -4 -23 -11 -40 -15 -38 -10 -34 -9 -70 -24 -16 -7 -97 -37 -180 -67 -82 -30 -159 -59 -170 -64 -11 -5 -63 -23 -115 -41 -274 -92 -356 -120 -370 -126 -8 -3 -17 -7 -20 -8 -24 -6 -194 -59 -228 -71 -23 -9 -48 -17 -55 -18 -6 -1 -39 -10 -72 -20 -33 -10 -71 -20 -85 -23 -13 -2 -30 -9 -37 -15 -7 -6 -13 -8 -13 -5 0 3 -15 1 -32 -5 -83 -25 -295 -81 -315 -82 -13 0 -23 -4 -23 -7 0 -3 -6 -6 -12 -6 -7 -1 -53 -11 -103 -23 -49 -11 -105 -23 -123 -26 -18 -2 -42 -9 -53 -14 -10 -6 -19 -9 -19 -6 0 2 -26 -2 -57 -9 -32 -8 -76 -16 -98 -19 -22 -3 -71 -12 -110 -20 -65 -13 -125 -24 -185 -32 -14 -1 -40 -5 -58 -8 -18 -3 -52 -8 -75 -11 -23 -3 -55 -8 -72 -11 -16 -3 -55 -7 -85 -9 -30 -2 -55 -5 -55 -6 0 -2 -33 -5 -95 -9 -25 -2 -51 -8 -58 -13 -8 -6 -12 -6 -12 2 0 7 -3 10 -7 8 -13 -8 -112 -16 -255 -22 -165 -7 -172 -8 -213 -37 -35 -23 -48 -56 -61 -143 -3 -27 -8 -59 -10 -70 -2 -11 -7 -40 -10 -65 -6 -47 -11 -81 -18 -115 -2 -11 -7 -45 -11 -75 -10 -76 -31 -124 -66 -151 -76 -58 -188 -39 -224 38 -17 34 -22 103 -11 122 3 5 8 24 10 42 3 19 15 90 26 159 12 69 24 139 27 155 2 17 6 40 8 53 11 67 -43 116 -140 126 -33 3 -76 9 -95 12 -19 3 -44 7 -55 8 -105 17 -173 29 -185 34 -8 3 -27 7 -42 9 -21 3 -170 39 -238 57 -8 3 -40 11 -70 19 -30 8 -81 24 -112 35 -32 11 -58 18 -58 15 0 -3 -6 -1 -12 4 -10 8 -68 31 -98 38 -3 1 -14 5 -25 10 -114 46 -220 85 -247 90 -89 18 -174 -6 -223 -63 -21 -23 -54 -107 -61 -152 -3 -19 -9 -40 -17 -65 -3 -11 -8 -31 -11 -45 -2 -14 -14 -61 -26 -105 -12 -44 -24 -91 -26 -105 -3 -14 -14 -56 -25 -95 -10 -38 -19 -72 -19 -75 0 -3 -5 -23 -11 -45 -6 -22 -13 -51 -16 -65 -2 -14 -11 -50 -20 -80 -9 -30 -17 -64 -19 -75 -3 -18 -15 -64 -30 -120 -3 -11 -7 -29 -9 -40 -2 -11 -4 -20 -5 -20 -1 0 -3 -7 -5 -15 -7 -33 -15 -68 -29 -122 -8 -32 -12 -58 -9 -58 3 0 0 -6 -6 -14 -6 -8 -11 -18 -10 -22 1 -5 0 -11 -1 -14 -1 -3 -3 -12 -5 -20 -2 -8 -11 -44 -20 -80 -16 -64 -27 -121 -29 -150 -1 -33 15 -120 24 -125 6 -4 8 -10 5 -14 -2 -5 4 -16 15 -26 11 -10 17 -21 15 -25 -6 -10 105 -124 165 -170 118 -91 400 -406 400 -448 0 -6 4 -12 8 -14 11 -4 82 -147 82 -164 0 -8 5 -14 10 -14 6 0 9 -3 8 -7 -1 -5 8 -39 19 -78 54 -175 49 -350 -16 -513 -73 -183 -221 -313 -427 -373 -96 -28 -289 -35 -381 -13 -32 8 -67 16 -79 18 -11 2 -42 11 -69 20 -72 25 -128 30 -184 16 -82 -19 -101 -51 -151 -249 -23 -91 -43 -174 -45 -184 -2 -10 -7 -27 -10 -37 -3 -10 -7 -27 -9 -37 -2 -10 -9 -38 -16 -63 -7 -25 -14 -52 -15 -60 -2 -8 -22 -89 -45 -180 -23 -91 -43 -174 -45 -185 -2 -11 -8 -32 -14 -47 -6 -16 -9 -28 -7 -28 2 0 -7 -39 -20 -87 -14 -49 -26 -99 -29 -113 -7 -40 -14 -70 -20 -90 -3 -10 -7 -27 -9 -37 -2 -10 -13 -53 -24 -97 -22 -82 -23 -199 -2 -220 5 -5 10 -16 10 -23 0 -7 11 -31 25 -53 14 -22 23 -40 20 -40 -7 0 14 -24 99 -113 41 -42 79 -77 85 -77 5 0 16 -6 23 -13 14 -13 161 -102 263 -157 111 -61 130 -72 143 -82 6 -6 12 -8 12 -5 0 3 32 -12 71 -34 40 -21 73 -39 75 -39 2 0 54 -24 116 -54 192 -92 389 -173 608 -251 58 -20 114 -41 125 -45 63 -26 87 -29 161 -21 38 4 63 56 78 166 5 31 18 108 23 130 2 11 6 34 8 50 3 17 7 41 10 55 2 14 7 39 10 55 15 88 23 105 67 136 55 39 169 25 231 -29 44 -39 62 -128 42 -217 -3 -16 -8 -43 -10 -60 -2 -16 -6 -43 -9 -60 -3 -16 -8 -47 -11 -67 -3 -21 -7 -55 -10 -75 -3 -21 -8 -51 -11 -68 -4 -16 -6 -37 -5 -45 1 -8 1 -23 2 -32 0 -10 4 -18 10 -18 5 0 9 -6 9 -14 0 -14 42 -60 57 -62 4 0 15 -3 23 -7 8 -3 31 -8 50 -11 19 -3 46 -8 60 -10 14 -3 41 -7 60 -10 19 -2 58 -8 85 -12 28 -3 59 -8 70 -10 11 -2 61 -9 110 -14 50 -6 113 -13 140 -16 28 -4 73 -8 100 -9 28 -2 50 -4 50 -5 0 -1 20 -3 45 -5 86 -6 235 -15 320 -21 93 -6 720 -6 840 0 96 5 287 16 365 22 106 7 305 23 360 29 22 3 63 7 90 10 28 4 70 8 95 10 25 3 102 12 172 21 70 8 132 13 138 9 5 -3 10 -2 10 2 0 5 15 10 33 11 18 1 43 4 56 7 13 2 49 7 80 11 31 3 65 8 76 11 11 2 34 6 50 8 107 15 132 19 153 19 12 1 22 5 22 9 0 5 4 6 8 3 4 -2 45 2 91 10 45 8 98 16 117 19 66 9 99 15 124 20 55 11 77 14 115 20 22 3 54 8 70 11 17 4 41 8 55 9 14 2 25 4 25 5 0 1 11 3 25 5 14 2 36 6 50 8 24 5 56 10 125 22 17 3 66 12 110 20 44 8 94 17 110 20 17 3 64 12 105 20 41 7 102 19 135 24 33 6 70 13 81 15 12 2 37 7 56 10 19 3 92 17 164 30 71 14 170 32 219 41 50 8 101 17 115 20 14 3 39 7 55 10 17 3 41 8 55 10 58 12 77 15 105 20 17 3 56 10 87 16 32 5 70 12 85 15 16 2 64 11 109 19 44 8 94 17 110 19 16 3 40 7 54 10 14 2 57 9 95 15 39 6 84 13 100 16 86 16 145 25 190 30 28 3 61 8 75 11 31 7 52 11 115 19 28 4 59 9 70 10 11 2 44 6 74 10 30 4 61 8 70 10 9 1 45 6 81 10 36 4 67 8 70 10 3 2 39 6 80 10 116 12 125 13 125 15 0 1 16 3 35 4 19 2 67 7 105 11 39 5 91 9 117 9 27 1 48 3 48 6 0 3 28 6 63 8 34 1 73 4 85 7 13 2 72 7 130 10 59 4 127 8 152 11 288 25 1004 24 1335 -2 33 -2 85 -6 115 -8 30 -3 55 -5 55 -6 0 -1 18 -3 40 -5 61 -5 156 -15 195 -20 19 -3 53 -7 75 -9 64 -8 167 -23 200 -30 11 -2 43 -7 70 -11 61 -9 84 -13 110 -18 23 -5 73 21 85 43 8 15 6 105 -3 175 -3 17 -8 57 -11 89 -4 33 -9 73 -11 90 -2 17 -7 54 -10 81 -4 28 -8 59 -10 70 -1 11 -6 49 -10 85 -4 36 -7 67 -8 70 -5 26 19 83 44 104 25 21 38 25 74 21 25 -2 59 -12 77 -21 40 -20 84 -54 72 -54 -5 0 -1 -5 9 -11 20 -12 54 -74 62 -115 10 -49 30 -186 40 -274 3 -32 8 -64 21 -160 3 -19 9 -69 15 -110 13 -97 48 -166 103 -208 24 -17 50 -32 58 -32 8 0 17 -3 21 -6 6 -6 99 -41 182 -68 22 -8 54 -19 70 -26 17 -7 35 -14 40 -16 9 -2 143 -56 215 -87 14 -6 27 -11 30 -12 3 0 15 -6 26 -13 12 -6 24 -9 26 -6 3 2 11 -2 18 -11 7 -8 19 -15 26 -15 8 0 22 -4 32 -9 9 -6 109 -55 222 -110 231 -113 322 -161 332 -176 4 -5 8 -6 8 -2 0 4 25 -8 55 -28 31 -19 58 -35 61 -35 3 0 29 -16 59 -35 135 -86 216 -108 281 -77 48 22 63 68 59 169 -2 46 -6 87 -9 92 -3 5 -8 24 -10 42 -5 39 -9 60 -31 189 -10 52 -19 109 -21 125 -1 17 -6 44 -9 60 -20 104 -29 159 -40 230 -12 80 -14 90 -45 270 -10 61 -21 124 -24 140 -2 17 -11 73 -21 125 -9 52 -18 109 -21 125 -6 34 -12 71 -18 100 -3 20 -18 111 -21 130 0 6 -5 33 -10 60 -5 28 -10 57 -10 65 -1 8 -5 31 -8 50 -11 55 -18 93 -23 122 -2 16 -7 43 -10 60 -3 18 -7 47 -8 63 -2 17 -9 55 -15 86 -6 30 -14 67 -16 81 -9 50 -44 147 -75 209 -63 126 -129 201 -337 384 -131 116 -393 398 -393 424 0 6 -4 11 -9 11 -5 0 -18 15 -30 33 -11 17 -28 41 -39 52 -10 12 -25 32 -33 46 -8 14 -31 50 -51 81 -112 167 -226 418 -274 600 -21 81 -25 99 -29 123 -2 11 -6 34 -9 50 -24 119 -25 300 -2 405 3 14 8 35 10 48 12 56 17 70 65 173 28 60 115 177 133 178 4 1 23 12 43 25 79 54 207 74 313 50 59 -14 106 -10 142 13 22 14 42 38 46 53 0 3 4 16 8 30 10 35 14 130 5 135 -3 3 -7 15 -7 27 0 13 -8 66 -17 118 -9 52 -18 107 -20 122 -2 15 -9 53 -14 85 -6 32 -13 76 -16 98 -6 41 -11 66 -18 100 -3 11 -8 40 -11 65 -7 50 -12 82 -26 155 -5 28 -12 66 -14 85 -7 42 -14 82 -22 130 -4 19 -8 42 -9 50 -5 32 -16 97 -20 120 -3 14 -7 41 -10 60 -3 19 -7 46 -10 60 -8 37 -17 101 -21 135 -1 17 -3 30 -4 30 -4 0 -15 62 -25 135 -3 19 -7 46 -10 60 -3 14 -10 54 -16 90 -10 67 -16 101 -23 135 -3 17 -19 117 -31 190 -35 228 -69 321 -161 452 -78 110 -141 156 -288 213 -72 28 -146 57 -164 65 -18 8 -41 15 -51 15 -10 0 -21 3 -25 8 -4 4 -11 7 -14 8 -22 3 -69 18 -79 27 -7 5 -13 7 -13 3 0 -3 -12 -1 -27 5 -35 13 -200 59 -233 64 -14 2 -52 11 -85 20 -33 9 -76 18 -95 21 -37 4 -75 11 -75 14 0 1 -9 3 -20 4 -11 2 -39 6 -63 10 -46 8 -56 10 -148 21 -55 7 -63 5 -89 -18 -26 -22 -29 -31 -29 -88 -1 -35 3 -91 7 -124 30 -235 38 -294 43 -325 13 -88 15 -109 18 -168 3 -51 -1 -69 -18 -95 -41 -61 -101 -73 -165 -33 -77 49 -105 101 -116 217 -3 30 -8 70 -10 89 -5 32 -12 92 -19 165 -2 17 -6 50 -10 75 -10 68 -16 113 -21 161 -8 66 -9 72 -29 104 -37 62 -59 70 -186 70 -63 0 -133 -2 -155 -5z m-757 -1783 c-47 -94 -91 -187 -99 -204 -7 -18 -17 -33 -21 -33 -5 0 -8 -5 -8 -12 0 -6 -46 -104 -101 -217 -135 -274 -128 -254 -78 -247 22 3 43 7 47 10 4 2 31 6 60 10 28 3 69 9 90 13 20 3 54 7 74 7 21 1 38 3 38 6 0 3 15 5 33 5 17 0 54 2 80 6 31 3 50 2 52 -5 3 -10 7 -51 20 -201 1 -22 5 -62 9 -90 3 -27 8 -81 11 -120 5 -69 11 -126 20 -215 8 -68 15 -149 21 -210 13 -156 13 -163 29 -305 4 -37 16 -166 20 -220 2 -22 7 -71 10 -110 4 -38 8 -90 10 -115 2 -25 6 -65 10 -90 3 -25 8 -72 11 -105 2 -33 7 -85 10 -115 6 -59 10 -103 18 -190 13 -151 22 -236 30 -315 3 -27 8 -79 11 -115 3 -36 8 -85 10 -110 3 -25 7 -74 10 -110 3 -35 8 -85 11 -110 3 -25 7 -70 9 -100 2 -30 5 -55 5 -55 1 0 4 -27 6 -60 3 -58 11 -130 14 -130 1 0 3 -31 5 -70 3 -38 7 -83 9 -100 3 -16 8 -61 11 -100 3 -38 8 -84 10 -102 3 -19 0 -35 -8 -40 -6 -4 -46 -8 -87 -9 -110 -2 -449 -15 -490 -19 -19 -2 -78 -6 -130 -10 -52 -3 -111 -7 -130 -9 -19 -3 -66 -7 -105 -10 -38 -3 -81 -8 -95 -11 -33 -5 -136 -16 -179 -18 l-34 -2 -4 60 c-1 33 -5 96 -7 140 -3 44 -5 80 -6 80 -1 0 -3 32 -5 70 -4 91 -14 264 -20 340 -3 33 -8 103 -11 155 -3 52 -7 122 -9 155 -2 33 -6 105 -10 160 -3 55 -8 132 -10 170 -3 39 -8 111 -11 160 -3 50 -7 115 -9 145 -2 30 -7 105 -10 165 -10 181 -18 303 -31 475 -4 63 -10 163 -13 243 -1 17 -21 25 -21 8 0 -5 -21 -46 -47 -92 -26 -46 -48 -86 -48 -89 0 -3 -28 -56 -63 -118 -34 -62 -62 -117 -62 -121 0 -5 -3 -11 -7 -13 -5 -1 -30 -46 -57 -98 -27 -52 -53 -96 -58 -98 -4 -2 -8 -10 -8 -18 0 -7 -13 -36 -30 -62 -16 -27 -30 -54 -30 -61 0 -6 -4 -11 -8 -11 -4 0 -13 -12 -19 -27 -7 -16 -35 -68 -63 -118 -27 -49 -62 -112 -76 -140 -15 -27 -32 -53 -38 -57 -6 -4 -7 -8 -3 -8 5 0 0 -12 -11 -27 -10 -16 -25 -41 -34 -58 -18 -38 -41 -79 -48 -85 -3 -3 -18 -30 -34 -60 -54 -102 -62 -116 -84 -147 -12 -16 -19 -32 -16 -35 2 -3 -2 -11 -11 -18 -8 -7 -15 -16 -15 -21 0 -11 -73 -133 -85 -141 -5 -4 -6 -8 -2 -8 5 0 0 -12 -11 -27 -10 -16 -31 -50 -47 -78 -31 -57 -111 -192 -166 -283 -22 -35 -39 -67 -39 -73 0 -5 -4 -9 -10 -9 -5 0 -10 -5 -10 -11 0 -13 -114 -199 -139 -226 -9 -10 -29 -36 -46 -58 -36 -48 -190 -201 -225 -223 -14 -9 -29 -22 -33 -29 -4 -7 -14 -13 -22 -13 -7 0 -15 -4 -17 -9 -4 -10 -148 -103 -148 -95 0 3 -6 -1 -14 -8 -15 -16 -219 -105 -251 -110 -11 -2 -22 -5 -25 -8 -5 -6 -153 -43 -182 -46 -10 -1 -19 -2 -20 -4 -12 -9 -279 -14 -318 -5 -33 8 -58 13 -97 19 -42 6 -115 26 -128 34 -5 4 -12 7 -15 7 -32 4 -156 72 -184 101 -9 8 -16 12 -16 8 0 -10 -141 135 -205 211 -27 32 -63 73 -78 89 -16 17 -38 44 -50 59 -12 15 -31 38 -42 51 -11 13 -33 38 -50 57 -16 19 -110 131 -209 249 -98 118 -188 226 -200 240 -11 14 -34 41 -49 60 -16 19 -43 53 -60 74 -18 22 -56 69 -85 105 -29 36 -61 75 -70 86 -9 11 -63 79 -120 150 -56 72 -108 137 -115 145 -7 8 -29 37 -50 64 -20 27 -38 45 -38 40 -2 -11 -6 -57 -13 -154 -15 -198 -19 -259 -20 -312 -1 -32 -3 -58 -6 -58 -3 0 -5 -21 -6 -48 0 -26 -4 -92 -8 -147 -3 -55 -8 -130 -11 -167 -2 -37 -7 -100 -10 -140 -6 -82 -14 -189 -20 -293 -3 -38 -7 -99 -9 -135 -3 -36 -7 -108 -11 -160 -3 -52 -8 -115 -10 -140 -2 -25 -7 -88 -10 -140 -3 -52 -8 -115 -10 -140 -4 -66 -17 -253 -18 -267 0 -7 -10 -13 -21 -14 -12 0 -30 -2 -41 -4 -23 -5 -99 -13 -165 -20 -25 -2 -74 -7 -110 -10 -278 -28 -459 -37 -725 -39 -163 -1 -199 2 -197 12 1 8 5 39 8 70 2 32 6 68 9 82 2 14 7 54 11 90 8 81 8 83 29 270 6 46 11 99 20 180 2 25 7 61 10 80 2 19 7 60 10 90 3 30 7 75 10 100 3 25 8 63 10 85 6 68 14 138 21 185 7 48 15 135 17 187 1 18 4 33 7 33 3 0 5 12 5 28 1 32 15 174 20 205 3 12 7 47 10 77 3 30 7 69 9 85 2 17 6 62 10 100 4 39 9 81 11 95 2 14 7 52 10 85 4 33 9 74 11 90 2 17 6 55 9 85 2 30 7 75 10 100 3 25 8 61 10 80 2 19 6 58 9 85 12 96 17 140 21 195 4 49 11 95 15 95 0 0 3 32 5 71 5 85 11 124 22 135 4 4 37 11 73 15 80 8 105 12 105 14 0 1 18 3 40 4 22 2 63 6 90 10 28 4 64 9 80 11 80 11 120 18 124 21 2 2 -9 22 -25 44 -16 23 -33 48 -39 57 -5 10 -14 22 -18 27 -5 6 -35 49 -67 96 -32 47 -63 90 -68 96 -5 5 -15 21 -22 35 -7 13 -16 26 -19 29 -9 7 -101 140 -101 146 0 3 -11 17 -25 32 -14 15 -25 31 -25 35 0 5 -7 15 -16 24 -22 22 -10 28 81 42 44 6 91 13 105 16 14 2 41 6 60 9 19 3 46 8 60 11 14 3 39 7 55 9 17 2 55 8 85 15 30 6 70 13 87 16 18 3 61 12 95 19 35 8 77 17 93 19 17 3 64 13 105 22 41 9 89 19 105 21 17 3 37 8 45 11 41 16 202 42 234 37 36 -5 92 -14 106 -17 8 -1 35 -13 60 -25 59 -29 112 -79 170 -162 13 -19 31 -42 40 -50 8 -8 49 -58 90 -110 41 -52 82 -102 90 -110 8 -9 24 -29 35 -44 11 -16 26 -34 33 -41 6 -8 58 -69 113 -137 56 -68 105 -125 108 -128 4 -3 20 -23 37 -45 16 -21 36 -47 44 -55 8 -9 33 -38 55 -65 22 -27 45 -53 50 -59 6 -6 32 -38 60 -71 27 -33 52 -62 55 -65 3 -3 41 -48 85 -100 108 -128 126 -149 156 -181 14 -16 36 -42 49 -60 14 -17 38 -46 55 -64 16 -18 50 -56 75 -86 25 -29 55 -65 67 -79 25 -28 41 -46 128 -145 33 -38 65 -73 70 -79 6 -6 23 -27 39 -46 32 -39 141 -163 169 -192 18 -19 19 -19 48 27 16 25 29 48 29 51 0 3 16 30 35 60 19 30 35 58 35 63 0 5 6 16 13 23 12 12 66 104 91 155 6 13 14 23 19 23 4 0 7 6 7 13 0 7 11 29 25 50 14 20 22 37 18 37 -4 0 -3 4 2 8 10 7 113 182 186 317 18 33 36 62 41 63 4 2 8 12 8 23 0 10 5 19 10 19 6 0 10 4 10 9 0 5 16 38 36 73 20 34 48 83 62 108 14 25 44 79 67 120 23 41 64 116 90 165 26 50 51 95 55 100 8 11 69 124 121 225 19 36 37 67 40 70 3 3 14 24 24 48 11 23 22 42 27 42 4 0 8 5 8 11 0 6 15 37 32 68 18 31 33 63 35 71 1 8 7 16 12 18 6 2 11 12 11 22 0 10 3 20 8 22 4 2 29 46 56 98 27 52 61 118 76 145 15 28 56 106 90 175 35 69 72 137 82 151 9 14 15 29 11 33 -3 3 -1 6 5 6 7 0 11 3 10 8 -2 7 23 63 32 72 3 3 45 86 95 185 49 99 96 188 104 198 8 9 11 17 7 17 -7 0 42 98 54 110 3 3 14 18 24 35 35 54 108 125 175 168 56 37 123 71 141 72 3 0 10 3 15 7 6 3 27 9 47 12 21 3 57 11 80 16 24 6 57 13 73 16 17 3 37 7 45 10 8 3 29 8 45 11 17 2 44 8 60 13 17 4 62 14 100 20 39 6 77 14 85 17 8 3 26 7 40 8 31 4 81 13 137 26 24 5 46 9 50 8 5 -1 10 0 13 1 10 3 45 10 75 14 36 5 101 16 135 22 14 3 43 7 64 9 21 3 42 7 45 10 3 4 7 1 9 -4 2 -6 -34 -89 -80 -184z m1532 -30 c34 -16 84 -66 103 -103 8 -16 20 -66 26 -110 5 -43 13 -101 16 -129 4 -27 8 -63 11 -80 2 -16 6 -52 10 -80 3 -27 7 -59 9 -70 1 -11 6 -47 10 -80 3 -33 8 -71 11 -85 2 -14 7 -50 10 -80 2 -30 7 -67 9 -82 10 -57 14 -85 20 -143 3 -33 8 -71 10 -85 3 -14 8 -47 11 -75 3 -27 6 -61 8 -75 2 -14 7 -54 12 -90 4 -36 8 -81 9 -100 4 -120 -101 -161 -216 -86 -65 44 -93 102 -105 223 -1 17 -6 51 -9 75 -4 24 -9 57 -10 73 -10 94 -16 143 -21 165 -2 14 -7 52 -10 85 -3 33 -7 67 -10 75 -3 8 -8 48 -11 90 -3 41 -7 79 -10 83 -3 5 -7 35 -9 69 -2 33 -6 72 -10 86 -3 15 -7 45 -9 67 -2 22 -6 65 -10 95 -3 30 -8 73 -10 95 -3 22 -7 60 -11 85 -3 25 -6 54 -8 65 -1 11 2 34 7 50 25 79 100 110 177 72z m-4707 -692 c4 -27 8 -61 11 -75 3 -14 10 -61 16 -105 7 -44 14 -89 16 -100 2 -11 6 -31 9 -45 3 -14 8 -43 10 -65 3 -22 7 -49 9 -60 3 -11 5 -25 5 -32 1 -12 12 -11 76 3 17 4 37 8 45 9 8 1 33 7 55 13 22 6 51 13 65 16 22 4 55 11 145 32 11 3 29 7 40 9 11 2 27 6 35 8 8 2 33 7 55 12 22 4 49 10 60 12 73 15 118 24 154 29 19 2 51 8 73 13 33 8 37 7 27 -5 -6 -8 -15 -14 -20 -14 -4 0 -20 -5 -36 -12 -15 -6 -30 -12 -33 -13 -3 0 -27 -12 -55 -25 -27 -13 -54 -25 -60 -26 -12 -2 -158 -68 -198 -89 -16 -8 -33 -15 -38 -15 -5 0 -41 -15 -81 -34 -69 -32 -147 -67 -158 -71 -61 -21 -150 -68 -151 -79 0 -6 -2 -24 -5 -41 -2 -16 -6 -48 -8 -70 -3 -22 -5 -40 -6 -40 -1 0 -3 -9 -5 -20 -5 -36 -17 -119 -20 -145 -2 -14 -6 -47 -10 -75 -7 -65 -15 -107 -20 -116 -3 -3 -6 -28 -7 -54 -2 -72 -19 -31 -34 85 -3 25 -9 61 -14 80 -5 19 -11 53 -14 75 -3 22 -7 51 -10 65 -7 39 -15 90 -22 145 -7 56 -16 65 -53 58 -41 -8 -56 -11 -56 -13 0 -1 -13 -4 -30 -6 -16 -3 -70 -14 -120 -25 -49 -12 -99 -22 -110 -24 -11 -2 -65 -13 -120 -25 -55 -12 -109 -23 -120 -25 -11 -1 -20 -3 -20 -5 0 -1 -9 -3 -20 -5 -11 -1 -54 -10 -95 -19 -89 -19 -80 -18 -80 -6 0 6 5 10 10 10 6 0 38 13 73 29 131 62 244 112 257 116 3 0 15 6 26 13 12 6 24 8 28 5 3 -3 6 -2 6 4 0 9 25 21 40 19 3 0 16 7 30 17 13 9 32 17 42 17 10 0 18 5 18 10 0 6 6 10 13 10 7 0 31 8 53 19 21 10 55 25 74 34 19 9 60 27 91 40 44 20 55 30 56 48 0 13 3 39 7 57 8 40 17 101 31 200 3 20 8 49 11 64 11 54 16 94 15 116 0 12 3 22 7 22 4 0 8 21 9 46 1 44 10 81 17 73 2 -2 6 -26 9 -54z m-933 -925 c0 -5 -2 -10 -4 -10 -3 0 -8 5 -11 10 -3 6 -1 10 4 10 6 0 11 -4 11 -10z m-3695 -166 c64 -30 80 -88 60 -211 -3 -18 -7 -48 -10 -66 -3 -19 -8 -49 -10 -68 -6 -51 -14 -107 -26 -179 -6 -36 -13 -76 -14 -90 -2 -14 -6 -34 -8 -46 -3 -11 -8 -47 -11 -79 -4 -32 -8 -61 -11 -64 -2 -4 -6 -27 -9 -51 -8 -61 -16 -111 -21 -136 -2 -11 -7 -45 -11 -75 -9 -83 -41 -140 -92 -166 -41 -21 -54 -21 -127 -7 -40 9 -92 65 -101 109 -5 30 -1 82 12 145 2 8 6 33 8 55 3 22 8 54 11 70 6 37 18 98 20 105 0 3 5 30 9 60 4 30 9 62 11 70 11 52 16 80 21 120 3 25 10 61 15 80 4 20 11 53 14 75 2 22 9 63 15 90 5 28 12 64 15 80 11 65 16 85 25 107 13 31 35 58 47 58 6 0 15 6 22 13 16 20 105 21 146 1z m9637 -722 c74 -30 143 -127 153 -214 2 -24 7 -59 10 -78 12 -83 21 -157 29 -237 3 -29 8 -65 10 -80 3 -16 19 -134 36 -263 30 -234 37 -282 45 -330 2 -14 7 -45 9 -70 13 -111 17 -137 23 -160 10 -39 0 -104 -19 -128 -32 -41 -69 -52 -128 -37 -38 10 -136 65 -116 65 3 0 -3 9 -14 20 -35 35 -52 90 -66 210 -3 25 -7 61 -10 80 -3 19 -7 51 -9 70 -2 19 -7 53 -9 75 -3 22 -8 63 -12 90 -10 84 -12 99 -18 140 -4 22 -8 60 -11 85 -2 25 -4 45 -5 45 -1 0 -3 16 -5 35 -3 19 -7 53 -10 75 -2 22 -7 58 -10 80 -2 22 -7 60 -11 85 -3 25 -8 59 -9 75 -2 17 -6 46 -9 65 -27 197 -27 212 1 260 35 58 84 71 155 42z m-9936 -1258 c60 -46 73 -103 50 -219 -2 -11 -7 -40 -10 -65 -3 -25 -8 -56 -11 -70 -3 -14 -8 -41 -10 -60 -8 -54 -15 -93 -20 -120 -3 -14 -8 -41 -10 -60 -2 -19 -7 -51 -11 -70 -3 -19 -8 -44 -9 -55 -5 -34 -35 -219 -40 -245 -3 -14 -7 -45 -11 -70 -9 -72 -24 -122 -45 -149 -46 -58 -119 -68 -203 -27 -83 41 -109 117 -83 241 4 18 10 55 23 140 3 17 7 37 9 45 2 8 6 35 9 60 3 25 8 56 11 70 3 14 8 41 11 60 3 19 10 62 16 95 6 33 12 69 13 80 2 25 16 113 22 140 8 42 25 141 28 165 6 61 28 98 80 132 44 28 142 19 191 -18z" transform="translate(0.000000,1500.000000) scale(0.100000,-0.100000)"/></g></svg>