<svg width="35" height="35" viewBox="0 0 35 35" fill="none" xmlns="http://www.w3.org/2000/svg">
<g clip-path="url(#clip0_14_186)">
<path d="M29.6297 7.17722C27.3984 6.17097 25.0067 5.42722 22.5057 5.0043C22.4834 5.00003 22.4604 5.00278 22.4397 5.01219C22.4191 5.02159 22.4019 5.03719 22.3905 5.0568C22.0842 5.59493 21.743 6.29639 21.5038 6.85055C18.8513 6.45423 16.1545 6.45423 13.502 6.85055C13.2356 6.23639 12.9352 5.63755 12.6022 5.0568C12.5909 5.03694 12.5738 5.021 12.5532 5.0111C12.5326 5.0012 12.5095 4.99781 12.487 5.00139C9.98737 5.4243 7.5957 6.16805 5.36299 7.17576C5.34378 7.18382 5.3275 7.19756 5.31633 7.21514C0.777993 13.887 -0.465966 20.3941 0.145076 26.8195C0.146776 26.8352 0.151661 26.8505 0.159433 26.8643C0.167205 26.8781 0.177702 26.8901 0.190284 26.8997C2.83919 28.8283 5.79369 30.2974 8.93008 31.2456C8.95194 31.2523 8.97532 31.2523 8.99718 31.2455C9.01903 31.2387 9.03834 31.2255 9.05258 31.2076C9.72748 30.305 10.3256 29.3474 10.8405 28.3449C10.8476 28.3312 10.8518 28.3161 10.8526 28.3007C10.8534 28.2853 10.8509 28.2698 10.8452 28.2555C10.8395 28.2411 10.8308 28.2281 10.8197 28.2173C10.8086 28.2066 10.7953 28.1984 10.7807 28.1933C9.83862 27.8385 8.92582 27.4104 8.0507 26.9128C8.03498 26.9039 8.02172 26.8911 8.01214 26.8758C8.00255 26.8604 7.99693 26.8429 7.99577 26.8248C7.99461 26.8068 7.99796 26.7887 8.00551 26.7722C8.01306 26.7558 8.02458 26.7415 8.03903 26.7306C8.22278 26.5949 8.40653 26.4535 8.58153 26.312C8.59729 26.2993 8.61626 26.2912 8.63634 26.2886C8.65643 26.286 8.67683 26.2891 8.69528 26.2974C14.4222 28.8699 20.6245 28.8699 26.2842 26.2974C26.3027 26.2886 26.3234 26.2851 26.3437 26.2875C26.3641 26.2898 26.3834 26.2978 26.3994 26.3106C26.5744 26.4535 26.7567 26.5949 26.942 26.7306C26.9565 26.7412 26.9683 26.7554 26.976 26.7717C26.9838 26.788 26.9875 26.806 26.9866 26.8241C26.9857 26.8421 26.9804 26.8597 26.9711 26.8752C26.9618 26.8907 26.9487 26.9036 26.9332 26.9128C26.0611 27.4145 25.154 27.8389 24.2017 28.1918C24.1871 28.1971 24.1738 28.2055 24.1627 28.2163C24.1515 28.2272 24.1428 28.2403 24.1372 28.2548C24.1315 28.2693 24.129 28.2849 24.1298 28.3004C24.1307 28.3159 24.1348 28.3311 24.142 28.3449C24.667 29.3468 25.2678 30.3006 25.9284 31.2062C25.9421 31.2248 25.9613 31.2387 25.9832 31.246C26.0051 31.2533 26.0288 31.2536 26.0509 31.247C29.1927 30.3015 32.152 28.8317 34.8038 26.8997C34.8168 26.8907 34.8276 26.879 34.8357 26.8654C34.8437 26.8518 34.8488 26.8367 34.8505 26.821C35.5797 19.3922 33.6284 12.9376 29.6749 7.21805C29.6652 7.19947 29.6491 7.18498 29.6297 7.17722ZM11.6965 22.9068C9.97278 22.9068 8.55091 21.3478 8.55091 19.436C8.55091 17.5226 9.94508 15.9651 11.6965 15.9651C13.4611 15.9651 14.8699 17.5358 14.8422 19.436C14.8422 21.3493 13.448 22.9068 11.6965 22.9068ZM23.3267 22.9068C21.6015 22.9068 20.1811 21.3478 20.1811 19.436C20.1811 17.5226 21.5738 15.9651 23.3267 15.9651C25.0913 15.9651 26.5001 17.5358 26.4724 19.436C26.4724 21.3493 25.0928 22.9068 23.3267 22.9068Z" fill="url(#paint0_linear_14_186)"/>
</g>
<defs>
<linearGradient id="paint0_linear_14_186" x1="17.5005" y1="5" x2="17.5005" y2="31.2517" gradientUnits="userSpaceOnUse">
<stop offset="0.505208" stop-color="#E38496"/>
<stop offset="1" stop-color="#CB8DFF"/>
</linearGradient>
<clipPath id="clip0_14_186">
<rect width="35" height="35" fill="white"/>
</clipPath>
</defs>
</svg>
