<svg width="49" height="39" viewBox="0 0 49 39" fill="none" xmlns="http://www.w3.org/2000/svg">
<path d="M3.125 10L21.8638 22.4925C22.6443 23.0133 23.5616 23.2912 24.5 23.2912C25.4384 23.2912 26.3557 23.0133 27.1362 22.4925L45.875 10M7.875 36.125H41.125C42.3848 36.125 43.593 35.6246 44.4838 34.7338C45.3746 33.843 45.875 32.6348 45.875 31.375V7.625C45.875 6.36522 45.3746 5.15704 44.4838 4.26624C43.593 3.37544 42.3848 2.875 41.125 2.875H7.875C6.61522 2.875 5.40704 3.37544 4.51624 4.26624C3.62544 5.15704 3.125 6.36522 3.125 7.625V31.375C3.125 32.6348 3.62544 33.843 4.51624 34.7338C5.40704 35.6246 6.61522 36.125 7.875 36.125Z" stroke="url(#paint0_linear_2314_2491)" stroke-width="4.75" stroke-linecap="round" stroke-linejoin="round"/>
<defs>
<linearGradient id="paint0_linear_2314_2491" x1="3.12499" y1="3.86901" x2="33.9715" y2="43.9586" gradientUnits="userSpaceOnUse">
<stop stop-color="#95E1FF"/>
<stop offset="0.463542" stop-color="#E7B0FF"/>
<stop offset="1" stop-color="#FFD27B"/>
</linearGradient>
</defs>
</svg>
