<svg width="34" height="28" viewBox="0 0 34 28" fill="none" xmlns="http://www.w3.org/2000/svg">
<path d="M0.899415 17.2342L0.899414 23.758C0.899414 25.5684 2.36728 27.0199 4.16133 27.0199L30.2566 27.0199C32.0507 27.0199 33.5022 25.5684 33.5022 23.758L33.5022 17.2342C31.7082 17.2342 30.2566 15.7663 30.2566 13.9723C30.2566 12.1782 31.7082 10.7103 33.5186 10.7103L33.5186 4.18651C33.5186 2.39246 32.0507 0.9246 30.2566 0.9246L4.16133 0.924598C2.36728 0.924598 0.899416 2.39246 0.899416 4.18651L0.899415 10.7103C2.69347 10.7103 4.16133 12.1782 4.16133 13.9723C4.16133 15.7663 2.69347 17.2342 0.899415 17.2342ZM4.16133 19.6154C6.10217 18.49 7.42324 16.3698 7.42324 13.9723C7.42324 11.5747 6.10217 9.4545 4.16133 8.32914L4.16133 4.18651L30.2566 4.18651L30.2566 8.32915C28.3158 9.45451 26.9947 11.5747 26.9947 13.9723C26.9947 16.3861 28.2995 18.49 30.2403 19.6154L30.2566 23.758L4.16133 23.758L4.16133 19.6154ZM18.8399 9.07938L15.578 9.07938L15.578 5.81747L18.8399 5.81747L18.8399 9.07938ZM18.8399 15.6032L15.578 15.6032L15.578 12.3413L18.8399 12.3413L18.8399 15.6032ZM18.8399 22.127L15.578 22.127L15.578 18.8651L18.8399 18.8651L18.8399 22.127Z" fill="white"/>
</svg>
