<svg xmlns="http://www.w3.org/2000/svg" width="48" height="37" fill="none" viewBox="0 0 48 37"><path fill="#DFDFDF" d="M47.9716 7.3758L43.8118 33.0901C43.7037 33.9003 42.9474 34.4406 42.1372 34.2786L39.5982 33.8463V32.3877L40.9488 32.6036C41.7589 32.7117 42.5152 32.1714 42.6233 31.4151L46.2966 8.61799C46.4048 7.80782 45.8644 7.05155 45.1081 6.94342L12.4791 1.70332C11.6689 1.59517 10.9127 2.13554 10.8045 2.89179L10.2641 6.34918H8.80546L9.61563 1.21722C9.72378 0.407051 10.4801 -0.133319 11.2902 0.0287458L46.7824 5.75494C47.5929 5.86347 48.1333 6.61975 47.9713 7.37607L47.9716 7.3758ZM38.8957 8.51045C38.8957 7.70028 38.2476 7.05177 37.4371 7.05177H1.45868C0.648509 7.05177 0 7.69991 0 8.51045V34.5489C0 35.359 0.648143 36.0075 1.45868 36.0075H37.4371C38.2472 36.0075 38.8957 35.3594 38.8957 34.5489V8.51045ZM1.45878 9.96874C1.45878 9.15857 2.10692 8.51006 2.91746 8.51006H35.9787C36.7888 8.51006 37.4374 9.15821 37.4374 9.96874V33.09C37.4374 33.9002 36.7892 34.5487 35.9787 34.5487H2.91746C2.10729 34.5487 1.45878 33.9005 1.45878 33.09V9.96874ZM38.1394 25.9051L29.6582 17.4235C28.902 16.6672 27.8755 16.2351 26.849 16.2351C25.8225 16.2351 24.7961 16.6673 24.0398 17.4235L6.21268 35.2507H38.1394V25.9051ZM12.101 27.3096L7.40086 22.6098C6.26622 21.4751 4.37575 21.4751 3.18718 22.6098L0.756302 25.0407V35.2508H4.15976L12.101 27.3096ZM9.07592 18.1798C10.9669 18.1798 12.4794 16.6672 12.4794 14.7764C12.4794 12.8854 10.9668 11.3729 9.07592 11.3729C7.18497 11.3729 5.67246 12.8855 5.67246 14.7764C5.67246 16.6673 7.18506 18.1798 9.07592 18.1798Z"/></svg>