<svg xmlns="http://www.w3.org/2000/svg" width="26" height="26" fill="none" viewBox="0 0 26 26"><g clip-path="url(#clip0_1116_122)"><path fill="url(#paint0_linear_1116_122)" d="M25.0967 9.42261C25.2871 9.27124 25.5703 9.41284 25.5703 9.6521V19.6375C25.5703 20.9314 24.5205 21.9812 23.2266 21.9812H2.91406C1.62012 21.9812 0.570312 20.9314 0.570312 19.6375V9.65698C0.570312 9.41284 0.848633 9.27612 1.04395 9.42749C2.1377 10.2771 3.58789 11.3562 8.56836 14.9744C9.59863 15.7263 11.3369 17.3083 13.0703 17.2986C14.8135 17.3132 16.5859 15.697 17.5771 14.9744C22.5576 11.3562 24.0029 10.2722 25.0967 9.42261ZM13.0703 15.7312C14.2031 15.7507 15.834 14.3054 16.6543 13.7097C23.1338 9.00757 23.627 8.59741 25.1211 7.42554C25.4043 7.20581 25.5703 6.86401 25.5703 6.50269V5.57495C25.5703 4.28101 24.5205 3.2312 23.2266 3.2312H2.91406C1.62012 3.2312 0.570312 4.28101 0.570312 5.57495V6.50269C0.570312 6.86401 0.736328 7.20093 1.01953 7.42554C2.51367 8.59253 3.00684 9.00757 9.48633 13.7097C10.3066 14.3054 11.9375 15.7507 13.0703 15.7312Z"/></g><defs><linearGradient id="paint0_linear_1116_122" x1=".57" x2="17.793" y1="3.792" y2="27.004" gradientUnits="userSpaceOnUse"><stop stop-color="#95E1FF"/><stop offset=".464" stop-color="#E7B0FF"/><stop offset="1" stop-color="#FFD27B"/></linearGradient><clipPath id="clip0_1116_122"><rect width="25" height="25" fill="#fff" transform="translate(0.570312 0.106201)"/></clipPath></defs></svg>