<svg width="29" height="28" viewBox="0 0 29 28" fill="none" xmlns="http://www.w3.org/2000/svg">
<path fill-rule="evenodd" clip-rule="evenodd" d="M9.40103 27.5036H9.12604C9.12604 23.9389 9.22994 20.2081 7.5536 17.5439C5.87727 14.8797 2.97484 14.1607 0.730469 14.1607V13.7237C2.97484 13.7237 5.87727 13.0571 7.5536 10.3863C9.22994 7.71554 9.12604 3.93444 9.12604 0.380737H9.40103C9.40103 3.94547 9.39924 7.72216 11.0756 10.3863C12.7519 13.0505 15.5522 13.7237 17.7966 13.7237V14.1607C15.5536 14.1607 12.7519 14.8797 11.0756 17.5439C9.39924 20.2081 9.40103 23.9367 9.40103 27.5036Z" fill="#424242"/>
<path fill-rule="evenodd" clip-rule="evenodd" d="M23.5979 15.3257H23.4463C23.4463 13.3615 23.5036 11.3057 22.5799 9.83777C21.6562 8.36979 20.057 7.97361 18.8203 7.97361V7.7328C20.057 7.7328 21.6562 7.36553 22.5799 5.8939C23.5036 4.42227 23.4463 2.33885 23.4463 0.380737H23.5979C23.5979 2.34494 23.5969 4.42592 24.5205 5.8939C25.4442 7.36188 26.9872 7.7328 28.2239 7.7328V7.97361C26.988 7.97361 25.4442 8.36979 24.5205 9.83777C23.5969 11.3057 23.5979 13.3603 23.5979 15.3257Z" fill="#424242"/>
</svg>
