<svg xmlns="http://www.w3.org/2000/svg" width="43" height="40" fill="none" viewBox="0 0 43 40"><path fill="#fff" fill-rule="evenodd" d="M12.5559 39.3731H12.1642C12.1642 34.2959 12.3122 28.9821 9.92465 25.1875C7.53707 21.393 3.40318 20.3689 0.206543 20.3689V19.7464C3.40318 19.7464 7.53707 18.7971 9.92465 14.9931C12.3122 11.1891 12.1642 5.80374 12.1642 0.742249H12.5559C12.5559 5.81946 12.5534 11.1986 14.941 14.9931C17.3285 18.7876 21.317 19.7464 24.5136 19.7464V20.3689C21.319 20.3689 17.3285 21.393 14.941 25.1875C12.5534 28.9821 12.5559 34.2927 12.5559 39.3731Z" clip-rule="evenodd"/><path fill="#fff" fill-rule="evenodd" d="M36.7313 21.3596H36.5304C36.5304 18.7554 36.6063 16.0298 35.3816 14.0835C34.157 12.1372 32.0366 11.6119 30.397 11.6119V11.2926C32.0366 11.2926 34.157 10.8057 35.3816 8.8545C36.6063 6.90335 36.5304 4.14106 36.5304 1.54489H36.7313C36.7313 4.14912 36.73 6.90819 37.9546 8.8545C39.1793 10.8008 41.225 11.2926 42.8647 11.2926V11.6119C41.2261 11.6119 39.1793 12.1372 37.9546 14.0835C36.73 16.0298 36.7313 18.7538 36.7313 21.3596Z" clip-rule="evenodd"/></svg>