<svg width="81" height="90" viewBox="0 0 81 90" fill="none" xmlns="http://www.w3.org/2000/svg">
<path fill-rule="evenodd" clip-rule="evenodd" d="M27.9431 90H27.0569C27.0569 78.3028 27.3917 66.0606 21.9893 57.3185C16.5869 48.5764 7.23307 46.217 0 46.217V44.783C7.23307 44.783 16.5869 42.5958 21.9893 33.832C27.3917 25.0681 27.0569 12.661 27.0569 1H27.9431C27.9431 12.6972 27.9373 25.0899 33.3398 33.832C38.7422 42.5741 47.7669 44.783 55 44.783V46.217C47.7714 46.217 38.7422 48.5764 33.3398 57.3185C27.9373 66.0606 27.9431 78.2956 27.9431 90Z" fill="white"/>
<path fill-rule="evenodd" clip-rule="evenodd" d="M55.1611 35H54.8389C54.8389 30.4 54.9606 25.5856 52.9961 22.1477C51.0316 18.7098 47.6302 17.782 45 17.782V17.218C47.6302 17.218 51.0316 16.3579 52.9961 12.9114C54.9606 9.46499 54.8389 4.58577 54.8389 0H55.1611C55.1611 4.60002 55.159 9.47354 57.1236 12.9114C59.0881 16.3494 62.3698 17.218 65 17.218V17.782C62.3714 17.782 59.0881 18.7098 57.1236 22.1477C55.159 25.5856 55.1611 30.3971 55.1611 35Z" fill="white"/>
<path fill-rule="evenodd" clip-rule="evenodd" d="M73.1289 80H72.8711C72.8711 76.1886 72.9685 72.1995 71.3969 69.351C69.8253 66.5024 67.1042 65.7336 65 65.7336V65.2664C67.1042 65.2664 69.8253 64.5537 71.3969 61.6981C72.9685 58.8424 72.8711 54.7996 72.8711 51H73.1289C73.1289 54.8114 73.1272 58.8495 74.6988 61.6981C76.2705 64.5466 78.8958 65.2664 81 65.2664V65.7336C78.8971 65.7336 76.2705 66.5024 74.6988 69.351C73.1272 72.1995 73.1289 76.1862 73.1289 80Z" fill="white"/>
</svg>
