<svg width="181" height="181" viewBox="0 0 181 181" fill="none" xmlns="http://www.w3.org/2000/svg">
<circle cx="90.4795" cy="90.4815" r="63.9796" transform="rotate(-135 90.4795 90.4815)" fill="url(#paint0_linear_739_99)"/>
<path fill-rule="evenodd" clip-rule="evenodd" d="M77.9421 135H77.0559C77.0559 123.303 77.3908 111.061 71.9883 102.319C66.5859 93.5769 57.2321 91.2175 49.999 91.2175V89.7835C57.2321 89.7835 66.5859 87.5963 71.9883 78.8325C77.3908 70.0686 77.0559 57.6615 77.0559 46.0005H77.9421C77.9421 57.6977 77.9364 70.0903 83.3388 78.8325C88.7412 87.5746 97.766 89.7835 104.999 89.7835V91.2175C97.7704 91.2175 88.7412 93.5769 83.3388 102.319C77.9364 111.061 77.9421 123.296 77.9421 135Z" fill="white"/>
<path fill-rule="evenodd" clip-rule="evenodd" d="M105.16 80.0005H104.838C104.838 75.4005 104.96 70.5861 102.995 67.1482C101.031 63.7103 97.6292 62.7825 94.999 62.7825V62.2185C97.6292 62.2185 101.031 61.3584 102.995 57.9119C104.96 54.4655 104.838 49.5863 104.838 45.0005H105.16C105.16 49.6005 105.158 54.474 107.123 57.9119C109.087 61.3498 112.369 62.2185 114.999 62.2185V62.7825C112.37 62.7825 109.087 63.7103 107.123 67.1482C105.158 70.5861 105.16 75.3976 105.16 80.0005Z" fill="white"/>
<path fill-rule="evenodd" clip-rule="evenodd" d="M123.128 125H122.87C122.87 121.189 122.968 117.2 121.396 114.351C119.824 111.503 117.103 110.734 114.999 110.734V110.267C117.103 110.267 119.824 109.554 121.396 106.699C122.968 103.843 122.87 99.8001 122.87 96.0005H123.128C123.128 99.8119 123.126 103.85 124.698 106.699C126.269 109.547 128.895 110.267 130.999 110.267V110.734C128.896 110.734 126.269 111.503 124.698 114.351C123.126 117.2 123.128 121.187 123.128 125Z" fill="white"/>
<defs>
<linearGradient id="paint0_linear_739_99" x1="26.4999" y1="90.4816" x2="168.891" y2="90.4816" gradientUnits="userSpaceOnUse">
<stop stop-color="#95E1FF"/>
<stop offset="0.463542" stop-color="#E7B0FF"/>
<stop offset="1" stop-color="#FFD27B"/>
</linearGradient>
</defs>
</svg>
