<svg width="81" height="81" viewBox="0 0 81 81" fill="none" xmlns="http://www.w3.org/2000/svg">
<path d="M67.5 10.125H16.875C11.2927 10.125 6.75 14.6677 6.75 20.25V60.75C6.75 66.3323 11.2927 70.875 16.875 70.875H67.5C71.2226 70.875 74.25 67.8476 74.25 64.125V16.875C74.25 13.1524 71.2226 10.125 67.5 10.125ZM16.875 64.125C15.012 64.125 13.5 62.6096 13.5 60.75V20.25C13.5 18.3904 15.012 16.875 16.875 16.875H67.5V27H47.25C43.5274 27 40.5 30.0274 40.5 33.75V47.25C40.5 50.9726 43.5274 54 47.25 54H67.5034V64.125H16.875ZM67.5 33.75V47.25H47.25V33.75H67.5Z" fill="url(#paint0_linear_2314_2494)"/>
<defs>
<linearGradient id="paint0_linear_2314_2494" x1="6.74999" y1="11.9411" x2="64.6644" y2="76.9879" gradientUnits="userSpaceOnUse">
<stop stop-color="#95E1FF"/>
<stop offset="0.463542" stop-color="#E7B0FF"/>
<stop offset="1" stop-color="#FFD27B"/>
</linearGradient>
</defs>
</svg>
