<svg width="66" height="61" viewBox="0 0 66 61" fill="none" xmlns="http://www.w3.org/2000/svg">
<path d="M56.3203 15.1893H9.49219C4.25566 15.1893 0 19.4449 0 24.6815V51.2596C0 56.4961 4.25566 60.7518 9.49219 60.7518H56.3203C61.5568 60.7518 65.8125 56.4961 65.8125 51.2596V24.6815C65.8125 19.4449 61.5568 15.1893 56.3203 15.1893ZM46.6541 0.159977L9.49219 7.4215C6.64453 8.05431 2.53125 10.9178 2.53125 14.3983C2.53125 14.3983 4.9043 11.3924 10.2832 11.3924H55.6875V8.14923C55.6875 6.15588 54.8965 3.6088 53.4885 2.2008C51.7008 0.413102 49.1379 -0.362094 46.6541 0.159977V0.159977Z" fill="url(#paint0_linear_2314_2493)"/>
<defs>
<linearGradient id="paint0_linear_2314_2493" x1="-1.0852e-05" y1="1.81617" x2="58.0677" y2="65.4027" gradientUnits="userSpaceOnUse">
<stop stop-color="#95E1FF"/>
<stop offset="0.463542" stop-color="#E7B0FF"/>
<stop offset="1" stop-color="#FFD27B"/>
</linearGradient>
</defs>
</svg>
